<svg xmlns="http://www.w3.org/2000/svg" viewBox="0 0 288.1 116.3"><defs><style>.cls-1{fill:#fff;}</style></defs><title>design.12Asset 1logo</title><g id="Layer_2" data-name="Layer 2"><g id="Ugaz_white" data-name="Ugaz white"><path class="cls-1" d="M182.1.1c-16.9,0-30.6,26-30.6,58.1a97.83,97.83,0,0,0,5.2,32.4c.7,2,1.5,3.9,2.3,5.7,3.6,7.8,8.3,13.8,13.6,17.2a2.85,2.85,0,0,0,4.4-2.4h0a2.69,2.69,0,0,0-1.4-2.4,21.3,21.3,0,0,1-4.7-4,38.72,38.72,0,0,1-5.6-8.3h33.6c-3,5.8-6.6,10-10.3,12.4a2.81,2.81,0,0,0-1.3,2.4h0a2.88,2.88,0,0,0,4.4,2.4c5.3-3.3,10-9.3,13.6-17.2.8-1.8,1.6-3.7,2.3-5.7a97.83,97.83,0,0,0,5.2-32.4C212.7,26.1,199,.1,182.1.1Zm19.3,90.4H162.6c-3.6-9.3-5.5-20.5-5.5-32.4,0-14.6,3-28.2,8.3-38.4,4.7-8.9,10.7-14,16.6-14s11.9,5.1,16.6,14c5.4,10.2,8.3,23.8,8.3,38.4A88.39,88.39,0,0,1,201.4,90.5Z"/><path class="cls-1" d="M133.3,74a2.89,2.89,0,0,0,2.8-2.5,116.26,116.26,0,0,0,.8-13.4C136.9,26,123.2,0,106.3,0S75.7,26,75.7,58.1a97.83,97.83,0,0,0,5.2,32.4c.7,2,1.5,3.9,2.3,5.7,5.6,12.3,13.9,20,23.1,20s17.5-7.8,23.1-20v-.1a4,4,0,0,0-3.7-5.6H86.8a90.89,90.89,0,0,1-5.6-32.4c0-14.6,3-28.2,8.3-38.4,4.7-8.9,10.7-14,16.6-14s11.9,5.1,16.6,14C128,29.9,131,43.5,131,58.1a105.59,105.59,0,0,1-.8,12.7,3.27,3.27,0,0,0,3.1,3.2ZM123.2,96.2c-.1.1-.1.3-.2.4-4.7,8.9-10.7,14-16.6,14s-11.9-5.1-16.6-14c-.1-.1-.1-.3-.2-.4Z"/><path class="cls-1" d="M285,66.4h0a2.81,2.81,0,0,1,2.8,3.1c-2.8,26.6-15.2,46.7-30,46.7-15.4,0-28.2-21.6-30.3-49.8L282,46.1c-1.2-9.9-3.8-19-7.6-26.3-4.7-8.9-10.7-14-16.6-14s-11.9,5.1-16.6,14c-4,7.6-6.7,17.2-7.8,27.7a2.82,2.82,0,0,1-2.8,2.5h0a2.81,2.81,0,0,1-2.8-3.1C230.6,20.3,243,.2,257.8.2c14.3,0,26.3,18.7,29.7,44a57,57,0,0,1,.6,5.8H288L233.6,70.3c1.2,10,3.8,19.1,7.6,26.4,4.7,8.9,10.7,14,16.6,14s11.9-5.1,16.6-14c4-7.6,6.7-17.2,7.8-27.7A2.76,2.76,0,0,1,285,66.4Z"/><path class="cls-1" d="M35.8,5.3h0a3,3,0,0,0,1.3,2.5c3.7,2.3,7.2,6.4,10.1,12,5.4,10.2,8.3,23.8,8.3,38.4s-3,28.3-8.3,38.4c-4.7,8.9-10.7,14-16.6,14s-11.9-5.1-16.6-14C8.6,86.4,5.7,72.8,5.7,58.2S8.7,30,14,19.8c3-5.6,6.5-9.7,10.1-12,.5-.9.9-1.5,1.3-2.4V5.3a2.75,2.75,0,0,0-4.2-2.4C8.9,10.4,0,32.3,0,58.2c0,32.1,13.7,58.1,30.6,58.1s30.6-26,30.6-58.1c0-25.9-8.9-47.8-21.2-55.3A2.73,2.73,0,0,0,35.8,5.3Z"/></g></g></svg>